HIERARCHY
ROOT Hips
{
	OFFSET -0.179506 -22.333345 2.821913
	CHANNELS 6 Xposition Yposition Zposition Zrotation Yrotation Xrotation 
	JOINT LeftUpLeg
	{
		OFFSET 6.951974 -9.140623 -0.681533
		CHANNELS 3 Zrotation Yrotation Xrotation
		JOINT LeftLeg
		{
			OFFSET 3.427654 -37.519855 -0.449580
			CHANNELS 3 Zrotation Yrotation Xrotation
			JOINT LeftFoot
			{
				OFFSET -1.359570 -39.796059 -4.369333
				CHANNELS 3 Zrotation Yrotation Xrotation
				JOINT LeftToe
				{
					OFFSET 2.635814 -5.579078 11.928840
					CHANNELS 3 Zrotation Yrotation Xrotation
					End Site
					{
						OFFSET 0.000000 0.000000 0.000000
					}
				}
			}
		}
	}
	JOINT RightUpLeg
	{
		OFFSET -6.767048 -9.052170 -0.431982
		CHANNELS 3 Zrotation Yrotation Xrotation
		JOINT RightLeg
		{
			OFFSET -3.829005 -38.256897 -0.885003
			CHANNELS 3 Zrotation Yrotation Xrotation
			JOINT RightFoot
			{
				OFFSET 1.577377 -39.841461 -4.231180
				CHANNELS 3 Zrotation Yrotation Xrotation
				JOINT RightToe
				{
					OFFSET -2.537174 -4.814398 12.334795
					CHANNELS 3 Zrotation Yrotation Xrotation
					End Site
					{
						OFFSET 0.000000 0.000000 0.000000
					}
				}
			}
		}
	}
	JOINT Spine
	{
		OFFSET -0.253288 10.896323 -2.669631
		CHANNELS 3 Zrotation Yrotation Xrotation
		JOINT Spine1
		{
			OFFSET 0.548704 13.518043 0.109247
			CHANNELS 3 Zrotation Yrotation Xrotation
			JOINT Spine2
			{
				OFFSET 0.145701 5.292222 2.542457
				CHANNELS 3 Zrotation Yrotation Xrotation
				JOINT Neck
				{
					OFFSET -0.277840 21.387037 -4.285703
					CHANNELS 3 Zrotation Yrotation Xrotation
					JOINT Head
					{
						OFFSET 0.515184 6.496960 5.134897
						CHANNELS 3 Zrotation Yrotation Xrotation
						End Site
						{
							OFFSET 0.000000 0.000000 0.000000
						}
					}
				}
				JOINT LeftShoulder
				{
					OFFSET 7.884473 12.174932 -3.408961
					CHANNELS 3 Zrotation Yrotation Xrotation
					JOINT LeftArm
					{
						OFFSET 9.097692 3.046888 -0.886815
						CHANNELS 3 Zrotation Yrotation Xrotation
						JOINT LeftForeArm
						{
							OFFSET 25.961220 -1.277207 -2.745643
							CHANNELS 3 Zrotation Yrotation Xrotation
							JOINT LeftHand
							{
								OFFSET 24.923361 0.898606 -0.117091
								CHANNELS 3 Zrotation Yrotation Xrotation
								End Site
								{
									OFFSET 0.000000 0.000000 0.000000
								}
							}
						}
					}
				}
				JOINT RightShoulder
				{
					OFFSET -8.175920 11.883285 -3.861528
					CHANNELS 3 Zrotation Yrotation Xrotation
					JOINT RightArm
					{
						OFFSET -9.601238 3.255117 -0.914307
						CHANNELS 3 Zrotation Yrotation Xrotation
						JOINT RightForeArm
						{
							OFFSET -25.374195 -1.332924 -2.140099
							CHANNELS 3 Zrotation Yrotation Xrotation
							JOINT RightHand
							{
								OFFSET -25.529810 0.777228 -0.555919
								CHANNELS 3 Zrotation Yrotation Xrotation
								End Site
								{
									OFFSET 0.000000 0.000000 0.000000
								}
							}
						}
					}
				}
			}
		}
	}
}
MOTION
Frames: 6
Frame Time: 0.033333
-9.067338 -151.824326 84.228256 -178.224830 -2.261519 82.588647 27.593598 3.609460 0.722609 -6.626694 -9.143633 19.846802 -7.735593 5.546932 -15.792010 nan nan nan -25.824902 -5.701925 -7.422382 4.561699 -0.354676 37.557258 6.633960 -3.099263 -26.156700 nan nan nan -1.797272 0.307545 12.499670 2.669131 -2.095636 5.795277 0.989042 -0.497382 -1.599486 3.625671 4.444554 -3.000926 -0.612520 -5.103872 10.676062 -31.116739 -0.087974 2.278897 -48.895638 -9.824163 10.682086 3.664314 -26.215484 4.621438 6.850906 -11.294026 -10.650849 31.654831 4.765501 4.072978 42.637192 1.952437 9.498928 -11.290268 22.226693 -10.284783 2.676739 8.226350 -0.378986 
-9.936624 -151.749039 84.126213 -178.003627 -1.939094 82.444172 27.554580 3.386202 0.554674 -6.982797 -9.191561 20.693041 -7.548072 5.348613 -17.653756 nan nan nan -26.313196 -5.719011 -6.587661 4.717472 -0.529062 36.608825 7.146441 -2.990643 -25.550545 nan nan nan -1.623870 0.515942 12.300775 2.810928 -2.223095 6.145726 0.997348 -0.514207 -1.585992 3.819391 4.307099 -2.979233 -0.776917 -5.429361 10.665913 -31.061650 -0.229721 2.344604 -48.859232 -9.930874 10.714797 4.041048 -26.297715 5.903385 4.749269 -11.312439 -9.443136 31.726865 4.771303 4.128978 42.438656 1.879598 9.219079 -11.638702 22.049594 -10.667843 3.326418 8.039551 -0.691322 
-10.835061 -151.672806 84.034996 -177.826150 -1.619319 82.399502 27.482182 3.217801 0.319291 -7.320499 -8.929956 21.424956 -7.167751 5.228029 -19.234888 nan nan nan -26.692309 -5.721005 -5.900586 4.713065 -0.609747 35.667020 7.725526 -3.021914 -24.937441 nan nan nan -1.493838 0.664812 12.005096 2.971829 -2.406677 6.429182 1.048639 -0.408108 -1.493045 3.958755 4.136571 -3.002362 -0.850217 -5.508736 10.576728 -30.998308 -0.313333 2.359153 -49.162248 -10.180038 10.716978 4.158640 -26.020745 6.202109 4.265838 -11.472934 -9.056660 31.754687 4.756833 4.136591 42.232810 1.874528 9.036897 -11.889014 21.757723 -11.045068 3.694942 8.044306 -0.619797 
-11.758233 -151.623795 83.980431 -177.932767 -1.301373 82.406381 27.391033 3.299993 0.203288 -7.641020 -8.481164 22.051848 -6.651198 5.152236 -20.602995 nan nan nan -26.891559 -5.668240 -5.508673 4.573860 -0.437472 34.761781 8.211842 -2.994747 -24.150524 nan nan nan -1.307590 0.878938 11.853438 3.082471 -2.400386 6.526600 1.140042 -0.336307 -1.468751 4.049531 4.032384 -2.954205 -0.911901 -5.461798 10.609166 -31.085682 -0.389421 2.403574 -49.258165 -10.251893 10.606758 4.047754 -25.970805 6.512040 3.866064 -11.512546 -8.466278 31.833301 4.743081 4.314148 41.934025 1.818493 8.843035 -12.074014 21.666218 -11.178567 3.870685 7.975573 -0.231381 
-12.679521 -151.602295 83.961563 -177.979406 -1.015383 82.400649 27.226804 3.484570 0.017262 -7.960181 -8.067007 22.770970 -6.113882 5.038378 -21.739701 nan nan nan -27.084652 -5.829779 -5.119548 4.425686 -0.040054 33.853312 8.559731 -2.870089 -23.138292 nan nan nan -1.119203 1.118386 11.812160 3.157596 -2.357822 6.512338 1.181337 -0.299515 -1.413915 4.070906 3.800649 -2.909593 -0.907958 -5.497496 10.711329 -31.117936 -0.504686 2.431450 -49.133981 -10.347587 10.590238 3.670665 -25.925051 6.822665 3.672609 -11.550023 -8.327296 31.886037 4.668407 4.340104 41.776041 1.730019 8.695531 -12.239807 21.545960 -11.519854 3.853266 7.889779 0.116238 
-13.618422 -151.596756 83.966530 -177.855636 -0.753626 82.468313 26.922443 3.624976 -0.424564 -8.163290 -7.732310 23.622971 -5.448147 4.938444 -22.861599 nan nan nan -27.276365 -6.081152 -4.650916 4.216706 0.428724 32.803011 8.907339 -2.802393 -21.988190 nan nan nan -0.962022 1.391018 11.730622 3.272458 -2.395525 6.343345 1.242179 -0.385714 -1.243222 4.103069 3.471038 -2.955623 -1.046736 -5.687625 10.985564 -31.091978 -0.555961 2.413669 -49.066012 -10.558165 10.656165 3.205231 -25.722447 7.197016 3.427057 -11.644716 -8.390017 31.917639 4.526058 4.265977 41.634942 1.773975 8.637215 -12.415355 21.232834 -12.026165 3.767517 7.699270 0.290505 
